<svg xmlns="http://www.w3.org/2000/svg" version="1.1" xmlns:xlink="http://www.w3.org/1999/xlink" xmlns:svgjs="http://svgjs.dev/svgjs" width="1000" height="580" viewBox="0 0 1000 580"><g transform="matrix(1,0,0,1,-0.6056348047761162,0.0571115270216751)"><svg viewBox="0 0 396 230" data-background-color="#ffffff" preserveAspectRatio="xMidYMid meet" height="580" width="1000" xmlns="http://www.w3.org/2000/svg" xmlns:xlink="http://www.w3.org/1999/xlink"><g id="tight-bounds" transform="matrix(1,0,0,1,0.24008861730862918,-0.02264767450860461)"><svg viewBox="0 0 395.52 230.04525907292586" height="230.04525907292586" width="395.52"><g><svg viewBox="0 0 395.52 230.04525907292586" height="230.04525907292586" width="395.52"><g><svg viewBox="0 0 395.52 230.04525907292586" height="230.04525907292586" width="395.52"><g id="textblocktransform"><svg viewBox="0 0 395.52 230.04525907292586" height="230.04525907292586" width="395.52" id="textblock"><g><svg viewBox="0 0 395.52 230.04525907292586" height="230.04525907292586" width="395.52"><path d="M394.594 49.34C392.735 25.462 387.435 18.823 387.435 18.823 371.165-5.772 350.86-0.47 332.619 3.064 300.414 3.207 268.339 8.46 236.208 11.278 168.767 11.708 100.749 4.64 33.643 22.071 27.339 27.42-6.54 23.122 1.121 52.397 3.129 64.575 10.456 78.09 10.232 89.265 11.236 91.223 12.631 86.734 13.226 89.552 15.309 97.145 18.711 93.564 21.501 98.053 17.614 110.04 20.403 120.021 23.062 130.48 18.377 133.202 12.371 131.913 9.675 140.939 9.396 147.481 7.89 146.24 6.235 145.953 5.026 145.762 2.59 146.479 2.999 148.532 4.394 155.552-1.594 159.612 2.162 166.489-0.422 173.939 3.948 180.386 3.353 188.457 3.278 190.081 3.687 191.466 4.338 191.848 7.22 193.901 3.018 197.913 3.464 202.259 33.029 231.964 65.104 211.428 95.394 225.087 103.259 215.535 97.346 228.478 100.489 226.472 102.943 224.132 104.728 233.827 107.499 228.334 107.927 226.758 107.276 223.033 108.8 223.75 109.6 224.132 110.307 224.036 110.418 221.839 110.586 218.544 109.117 220.598 108.726 218.878 112.947 210.187 111.906 230.866 115.866 230.006 115.68 227.475 114.528 223.845 116.889 224.323 119.232 220.693 119.306 217.685 121.389 225.851 121.463 227.618 121.835 228.86 122.43 229.719 128.938 220.837 135.409 232.871 142.233 228.86 146.417 224.466 150.433 231.248 154.672 229.576 156.16 228.239 157.666 225.851 159.098 229.863 176.632 230.722 195.319 227.14 211.943 230.006 256.364 224.657 303.836 232.203 350.674 225.135 361.719 222.413 373.192 218.544 383.958 215.44 383.958 215.44 392.679 206.939 392.679 168.733S394.538 135.303 394.817 104.882C395.096 74.461 396.398 73.219 394.538 49.34Z" opacity="1" fill="#ee3e38" data-fill-palette-color="tertiary"></path><g transform="matrix(1,0,0,1,55.76832,26.230666666666668)"><svg width="283.98335999999995" viewBox="3.25 -35.1 56.45 35.300000000000004" height="177.58392573959253" data-palette-color="#ffffff"><path d="M24.85-24.95L24.6-31.3Q22.05-32.3 19.25-32.3L19.25-32.3Q13.6-32.3 10.13-28.15 6.65-24 6.65-16 6.65-8 10.3-4.8L10.3-4.8Q12.8-2.55 17.25-2.55L17.25-2.55Q20.1-2.55 22.98-3.2 25.85-3.85 26.9-4.45L26.9-4.45 27.6-2Q25.4-0.55 19.9 0L19.9 0Q18.3 0.2 16.53 0.2 14.75 0.2 12.35-0.38 9.95-0.95 7.9-2.7L7.9-2.7Q3.25-6.65 3.25-15.85 3.25-25.05 7.63-30.08 12-35.1 19-35.1L19-35.1Q22.9-35.1 25.7-33.55L25.7-33.55Q26.75-33 27.35-32.35L27.35-32.35 27.35-25.1 24.85-24.95ZM59.7 0L56.05 0 36.1-30.5 36.35 0 33.2 0 33.2-35 36.85-35 56.75-4.5 56.55-35 59.7-35 59.7 0Z" opacity="1" transform="matrix(1,0,0,1,0,0)" fill="#ffffff" class="wordmark-text-0" data-fill-palette-color="quaternary" id="text-0"></path></svg></g></svg></g></svg></g></svg></g><g></g></svg></g><defs></defs></svg><rect width="395.52" height="230.04525907292586" fill="none" stroke="none" visibility="hidden"></rect></g></svg></g></svg>